<mxfile host="app.diagrams.net" modified="2024-03-24T08:55:08.931Z" agent="Mozilla/5.0 (Macintosh; Intel Mac OS X 10_15_7) AppleWebKit/605.1.15 (KHTML, like Gecko) Version/17.2.1 Safari/605.1.15" etag="cHFZVSK8hWpPgAJLv-wi" version="24.0.7" type="github">
  <diagram id="C5RBs43oDa-KdzZeNtuy" name="Page-1">
    <mxGraphModel dx="1434" dy="827" grid="1" gridSize="10" guides="1" tooltips="1" connect="1" arrows="1" fold="1" page="1" pageScale="1" pageWidth="827" pageHeight="1169" math="0" shadow="0">
      <root>
        <mxCell id="WIyWlLk6GJQsqaUBKTNV-0" />
        <mxCell id="WIyWlLk6GJQsqaUBKTNV-1" parent="WIyWlLk6GJQsqaUBKTNV-0" />
        <mxCell id="RwLBbl3PANXFplzpucUa-18" value="" style="rounded=0;whiteSpace=wrap;html=1;" vertex="1" parent="WIyWlLk6GJQsqaUBKTNV-1">
          <mxGeometry x="180" y="130" width="200" height="710" as="geometry" />
        </mxCell>
        <mxCell id="RwLBbl3PANXFplzpucUa-7" style="rounded=0;orthogonalLoop=1;jettySize=auto;html=1;exitX=1;exitY=0.3333333333333333;exitDx=0;exitDy=0;exitPerimeter=0;entryX=0;entryY=0.5;entryDx=0;entryDy=0;" edge="1" parent="WIyWlLk6GJQsqaUBKTNV-1" source="RwLBbl3PANXFplzpucUa-0" target="RwLBbl3PANXFplzpucUa-6">
          <mxGeometry relative="1" as="geometry" />
        </mxCell>
        <mxCell id="RwLBbl3PANXFplzpucUa-8" value="扫码关注回复403" style="edgeLabel;html=1;align=center;verticalAlign=middle;resizable=0;points=[];" vertex="1" connectable="0" parent="RwLBbl3PANXFplzpucUa-7">
          <mxGeometry x="0.0613" y="-4" relative="1" as="geometry">
            <mxPoint as="offset" />
          </mxGeometry>
        </mxCell>
        <mxCell id="RwLBbl3PANXFplzpucUa-0" value="User" style="shape=umlActor;verticalLabelPosition=bottom;verticalAlign=top;html=1;" vertex="1" parent="WIyWlLk6GJQsqaUBKTNV-1">
          <mxGeometry x="80" y="180" width="30" height="60" as="geometry" />
        </mxCell>
        <mxCell id="RwLBbl3PANXFplzpucUa-3" value="登陆页面" style="html=1;whiteSpace=wrap;" vertex="1" parent="WIyWlLk6GJQsqaUBKTNV-1">
          <mxGeometry x="180" y="100" width="200" height="30" as="geometry" />
        </mxCell>
        <mxCell id="RwLBbl3PANXFplzpucUa-4" value="微信公众号" style="html=1;whiteSpace=wrap;" vertex="1" parent="WIyWlLk6GJQsqaUBKTNV-1">
          <mxGeometry x="380" y="100" width="250" height="30" as="geometry" />
        </mxCell>
        <mxCell id="RwLBbl3PANXFplzpucUa-5" value="chatgpt-data" style="html=1;whiteSpace=wrap;" vertex="1" parent="WIyWlLk6GJQsqaUBKTNV-1">
          <mxGeometry x="630" y="100" width="450" height="30" as="geometry" />
        </mxCell>
        <mxCell id="RwLBbl3PANXFplzpucUa-11" style="edgeStyle=orthogonalEdgeStyle;rounded=0;orthogonalLoop=1;jettySize=auto;html=1;exitX=1;exitY=0.5;exitDx=0;exitDy=0;" edge="1" parent="WIyWlLk6GJQsqaUBKTNV-1" source="RwLBbl3PANXFplzpucUa-6" target="RwLBbl3PANXFplzpucUa-10">
          <mxGeometry relative="1" as="geometry" />
        </mxCell>
        <mxCell id="RwLBbl3PANXFplzpucUa-6" value="接收403请求" style="html=1;whiteSpace=wrap;" vertex="1" parent="WIyWlLk6GJQsqaUBKTNV-1">
          <mxGeometry x="440" y="180" width="90" height="40" as="geometry" />
        </mxCell>
        <mxCell id="RwLBbl3PANXFplzpucUa-9" value="登陆" style="shape=umlFrame;whiteSpace=wrap;html=1;pointerEvents=0;" vertex="1" parent="WIyWlLk6GJQsqaUBKTNV-1">
          <mxGeometry x="630" y="160" width="460" height="340" as="geometry" />
        </mxCell>
        <mxCell id="RwLBbl3PANXFplzpucUa-13" style="edgeStyle=orthogonalEdgeStyle;rounded=0;orthogonalLoop=1;jettySize=auto;html=1;exitX=0.5;exitY=1;exitDx=0;exitDy=0;entryX=0.5;entryY=0;entryDx=0;entryDy=0;" edge="1" parent="WIyWlLk6GJQsqaUBKTNV-1" source="RwLBbl3PANXFplzpucUa-10" target="RwLBbl3PANXFplzpucUa-12">
          <mxGeometry relative="1" as="geometry" />
        </mxCell>
        <mxCell id="RwLBbl3PANXFplzpucUa-10" value="生成验证码" style="html=1;whiteSpace=wrap;" vertex="1" parent="WIyWlLk6GJQsqaUBKTNV-1">
          <mxGeometry x="670" y="200" width="110" height="50" as="geometry" />
        </mxCell>
        <mxCell id="RwLBbl3PANXFplzpucUa-16" style="edgeStyle=orthogonalEdgeStyle;rounded=0;orthogonalLoop=1;jettySize=auto;html=1;exitX=0;exitY=0.5;exitDx=0;exitDy=0;" edge="1" parent="WIyWlLk6GJQsqaUBKTNV-1" source="RwLBbl3PANXFplzpucUa-12" target="RwLBbl3PANXFplzpucUa-15">
          <mxGeometry relative="1" as="geometry" />
        </mxCell>
        <mxCell id="RwLBbl3PANXFplzpucUa-12" value="记录验证码" style="html=1;whiteSpace=wrap;" vertex="1" parent="WIyWlLk6GJQsqaUBKTNV-1">
          <mxGeometry x="670" y="270" width="110" height="50" as="geometry" />
        </mxCell>
        <mxCell id="RwLBbl3PANXFplzpucUa-20" style="edgeStyle=orthogonalEdgeStyle;rounded=0;orthogonalLoop=1;jettySize=auto;html=1;exitX=1;exitY=0.5;exitDx=0;exitDy=0;entryX=0;entryY=0.5;entryDx=0;entryDy=0;" edge="1" parent="WIyWlLk6GJQsqaUBKTNV-1" source="RwLBbl3PANXFplzpucUa-15" target="RwLBbl3PANXFplzpucUa-19">
          <mxGeometry relative="1" as="geometry" />
        </mxCell>
        <mxCell id="RwLBbl3PANXFplzpucUa-15" value="输入验证码" style="html=1;whiteSpace=wrap;" vertex="1" parent="WIyWlLk6GJQsqaUBKTNV-1">
          <mxGeometry x="200" y="350" width="110" height="50" as="geometry" />
        </mxCell>
        <mxCell id="RwLBbl3PANXFplzpucUa-17" value="返回验证码" style="text;html=1;align=center;verticalAlign=middle;resizable=0;points=[];autosize=1;strokeColor=none;fillColor=none;" vertex="1" parent="WIyWlLk6GJQsqaUBKTNV-1">
          <mxGeometry x="480" y="278" width="80" height="30" as="geometry" />
        </mxCell>
        <mxCell id="RwLBbl3PANXFplzpucUa-24" style="edgeStyle=orthogonalEdgeStyle;rounded=0;orthogonalLoop=1;jettySize=auto;html=1;exitX=0.5;exitY=1;exitDx=0;exitDy=0;entryX=0.5;entryY=1;entryDx=0;entryDy=0;" edge="1" parent="WIyWlLk6GJQsqaUBKTNV-1" source="RwLBbl3PANXFplzpucUa-19" target="RwLBbl3PANXFplzpucUa-15">
          <mxGeometry relative="1" as="geometry" />
        </mxCell>
        <mxCell id="RwLBbl3PANXFplzpucUa-25" value="失败" style="edgeLabel;html=1;align=center;verticalAlign=middle;resizable=0;points=[];" vertex="1" connectable="0" parent="RwLBbl3PANXFplzpucUa-24">
          <mxGeometry x="0.0605" y="-1" relative="1" as="geometry">
            <mxPoint as="offset" />
          </mxGeometry>
        </mxCell>
        <mxCell id="RwLBbl3PANXFplzpucUa-27" style="edgeStyle=orthogonalEdgeStyle;rounded=0;orthogonalLoop=1;jettySize=auto;html=1;exitX=1;exitY=0.5;exitDx=0;exitDy=0;entryX=0.5;entryY=0;entryDx=0;entryDy=0;" edge="1" parent="WIyWlLk6GJQsqaUBKTNV-1" source="RwLBbl3PANXFplzpucUa-19" target="RwLBbl3PANXFplzpucUa-26">
          <mxGeometry relative="1" as="geometry" />
        </mxCell>
        <mxCell id="RwLBbl3PANXFplzpucUa-28" value="成功" style="edgeLabel;html=1;align=center;verticalAlign=middle;resizable=0;points=[];" vertex="1" connectable="0" parent="RwLBbl3PANXFplzpucUa-27">
          <mxGeometry x="-0.1852" y="-1" relative="1" as="geometry">
            <mxPoint as="offset" />
          </mxGeometry>
        </mxCell>
        <mxCell id="RwLBbl3PANXFplzpucUa-19" value="校验验证码" style="html=1;whiteSpace=wrap;" vertex="1" parent="WIyWlLk6GJQsqaUBKTNV-1">
          <mxGeometry x="670" y="350" width="110" height="50" as="geometry" />
        </mxCell>
        <mxCell id="RwLBbl3PANXFplzpucUa-30" style="edgeStyle=orthogonalEdgeStyle;rounded=0;orthogonalLoop=1;jettySize=auto;html=1;exitX=0;exitY=0.5;exitDx=0;exitDy=0;entryX=1;entryY=0.5;entryDx=0;entryDy=0;" edge="1" parent="WIyWlLk6GJQsqaUBKTNV-1" source="RwLBbl3PANXFplzpucUa-26" target="RwLBbl3PANXFplzpucUa-29">
          <mxGeometry relative="1" as="geometry" />
        </mxCell>
        <mxCell id="RwLBbl3PANXFplzpucUa-26" value="下发token" style="html=1;whiteSpace=wrap;" vertex="1" parent="WIyWlLk6GJQsqaUBKTNV-1">
          <mxGeometry x="805" y="430" width="110" height="50" as="geometry" />
        </mxCell>
        <mxCell id="RwLBbl3PANXFplzpucUa-29" value="跳转对话首页" style="html=1;whiteSpace=wrap;" vertex="1" parent="WIyWlLk6GJQsqaUBKTNV-1">
          <mxGeometry x="200" y="430" width="110" height="50" as="geometry" />
        </mxCell>
      </root>
    </mxGraphModel>
  </diagram>
</mxfile>
